<svg width="30" height="30" viewBox="0 0 30 30" fill="none" xmlns="http://www.w3.org/2000/svg">
<circle cx="15" cy="15" r="14.4" transform="matrix(-1 0 0 1 30 0)" stroke="black" stroke-width="1.2"/>
<path d="M10.2786 14.3746L18.3836 6.74063C18.5188 6.61318 18.6979 6.54269 18.8838 6.54376C19.0696 6.54483 19.2479 6.61738 19.3816 6.74637L19.3903 6.7551C19.4553 6.81764 19.507 6.89275 19.5421 6.97588C19.5772 7.05902 19.5951 7.14842 19.5946 7.23867C19.594 7.32892 19.5752 7.41811 19.5391 7.50084C19.503 7.58356 19.4505 7.65807 19.3847 7.71985L11.7523 14.9082L19.3014 22.181C19.3665 22.2435 19.4181 22.3187 19.4533 22.4018C19.4884 22.4849 19.5062 22.5743 19.5057 22.6646C19.5052 22.7548 19.4863 22.844 19.4502 22.9267C19.4142 23.0095 19.3616 23.084 19.2959 23.1458L19.2871 23.1544C19.1519 23.2818 18.9728 23.3523 18.787 23.3513C18.6011 23.3502 18.4229 23.2776 18.2891 23.1486L10.2725 15.4218C10.202 15.3539 10.1461 15.2723 10.108 15.1821C10.07 15.0918 10.0506 14.9948 10.0512 14.8969C10.0518 14.799 10.0722 14.7022 10.1113 14.6124C10.1504 14.5227 10.2073 14.4417 10.2786 14.3746Z" fill="black"/>
</svg>
