<svg width="36" height="36" viewBox="0 0 36 36" fill="none" xmlns="http://www.w3.org/2000/svg">
<path d="M31.7417 24.9837C31.6823 25.5722 31.4703 26.1351 31.1267 26.6168C30.8136 27.08 30.3912 27.4589 29.8968 27.7202C29.4023 27.9815 28.851 28.1171 28.2917 28.115H23.8817C23.8035 28.5194 23.688 28.9155 23.5367 29.2986C23.235 30.032 22.7906 30.6983 22.2293 31.259C21.668 31.8197 21.0009 32.2635 20.2667 32.5647C19.5236 32.8643 18.7278 33.012 17.9267 32.9993H17.8067C17.0654 32.9939 16.3322 32.8464 15.6467 32.5647C14.9014 32.2757 14.2264 31.8314 13.6666 31.2614C13.101 30.7037 12.6568 30.0356 12.3616 29.2986C12.2103 28.9155 12.0948 28.5194 12.0167 28.115H7.78663C7.23405 28.1589 6.67916 28.0658 6.17142 27.8435C5.66369 27.6213 5.21886 27.2771 4.87663 26.8415C4.55302 26.3151 4.35021 25.7238 4.28277 25.1099C4.21534 24.4959 4.28494 23.8746 4.48662 23.2907C4.81306 22.425 5.25724 21.6083 5.80662 20.8635C6.43833 20.1002 6.862 19.1867 7.03663 18.2117C7.03663 13.8818 7.03662 12.4135 9.40662 9.59688C10.1883 8.6641 11.1598 7.90825 12.2566 7.37953L13.4266 6.81019C13.4837 6.7738 13.5344 6.72825 13.5766 6.67536C13.6214 6.61834 13.6522 6.55164 13.6666 6.48058C13.8362 5.7492 14.1865 5.07189 14.6855 4.5105C15.1845 3.94911 15.8165 3.52149 16.5236 3.26671C17.2305 3.01195 17.9903 2.93814 18.7331 3.052C19.476 3.16587 20.1786 3.46383 20.7767 3.91863C21.5976 4.5721 22.1349 5.5165 22.2767 6.55548V6.70531C22.3203 6.76647 22.3766 6.81757 22.4417 6.85515L23.5217 7.37953C24.617 7.90389 25.5884 8.65458 26.3717 9.58192C28.7417 12.4136 28.7417 13.8818 28.7417 18.2117C28.9431 19.2476 29.4023 20.2161 30.0767 21.0284C30.6158 21.7502 31.0547 22.5414 31.3817 23.3807C31.6281 23.8785 31.7516 24.4283 31.7417 24.9837Z" fill="black"/>
</svg>
