<svg width="36.000000" height="36.000000" viewBox="0 0 36 36" fill="none" xmlns="http://www.w3.org/2000/svg" xmlns:xlink="http://www.w3.org/1999/xlink">
	<desc>
			Created with Pixso.
	</desc>
	<defs>
		<clipPath id="clip362_1005">
			<rect id="Icons" width="36.000000" height="36.000000" fill="white" fill-opacity="0"/>
		</clipPath>
	</defs>
	<rect id="Icons" width="36.000000" height="36.000000" fill="#FFFFFF" fill-opacity="0"/>
	<g clip-path="url(#clip362_1005)">
		<path id="Vector" d="M28.15 26.97C28.55 27 28.95 26.92 29.3 26.74C29.66 26.57 29.97 26.3 30.2 25.98C30.42 25.65 30.56 25.27 30.6 24.87C30.64 24.48 30.58 24.08 30.42 23.71C29.88 22.08 27.73 20.12 27.73 18.2C27.73 13.92 27.73 12.8 25.62 10.28C24.94 9.47 24.09 8.82 23.14 8.36L21.97 7.79C21.77 7.67 21.6 7.51 21.47 7.32C21.33 7.13 21.24 6.92 21.2 6.69C21.08 5.93 20.68 5.24 20.08 4.77C19.47 4.29 18.7 4.06 17.94 4.13C17.18 4.09 16.44 4.32 15.85 4.8C15.26 5.27 14.87 5.95 14.76 6.69C14.7 6.93 14.6 7.15 14.45 7.33C14.31 7.52 14.12 7.68 13.91 7.79L12.73 8.36C11.78 8.82 10.94 9.47 10.25 10.28C8.15 12.8 8.15 13.92 8.15 18.2C8.15 20.12 6.09 21.88 5.55 23.61C5.23 24.66 5.05 26.97 7.77 26.97L17.94 26.97L28.15 26.97Z" stroke="#000000" stroke-opacity="1.000000" stroke-width="2.250000" stroke-linejoin="round"/>
		<path id="Vector" d="M22.83 26.97C22.85 27.62 22.73 28.26 22.49 28.86C22.25 29.46 21.89 30.01 21.43 30.47C20.97 30.92 20.43 31.28 19.83 31.52C19.23 31.77 18.58 31.88 17.94 31.87C17.29 31.88 16.65 31.77 16.05 31.52C15.45 31.28 14.9 30.92 14.45 30.47C13.99 30.01 13.63 29.46 13.39 28.86C13.15 28.26 13.03 27.62 13.04 26.97" stroke="#000000" stroke-opacity="1.000000" stroke-width="2.250000" stroke-linejoin="round" stroke-linecap="round"/>
	</g>
</svg>
