<svg width="25" height="25" viewBox="0 0 25 25" fill="none" xmlns="http://www.w3.org/2000/svg">
<path d="M4.31697 17.4305L4.83009 13.8631C4.85821 13.6303 4.96615 13.4144 5.13552 13.2522L15.2025 3.18521C15.332 3.05326 15.4935 2.95696 15.6711 2.90559C15.8487 2.85423 16.0366 2.84955 16.2165 2.892C17.145 3.13936 17.9893 3.63328 18.66 4.32141C19.354 4.98945 19.8525 5.83431 20.1016 6.76485C20.1406 6.94494 20.1342 7.13188 20.0831 7.30888C20.0318 7.48589 19.9374 7.64739 19.8084 7.77888L9.74142 17.8459C9.5676 18.0058 9.35119 18.1118 9.11833 18.1513L5.5387 18.6644C5.37188 18.687 5.20209 18.6705 5.04273 18.6163C4.88335 18.562 4.73876 18.4715 4.62032 18.3519C4.50187 18.2323 4.41283 18.0868 4.36019 17.9269C4.30755 17.767 4.29276 17.597 4.31697 17.4305Z" stroke="black" stroke-width="1.5625" stroke-linecap="round" stroke-linejoin="round"/>
<path d="M13.3086 5.09375L17.9022 9.67521" stroke="black" stroke-width="1.5625" stroke-linecap="round" stroke-linejoin="round"/>
<path d="M3.94775 22.1367H21.0519" stroke="black" stroke-width="1.5625" stroke-linecap="round" stroke-linejoin="round"/>
</svg>
