<svg width="37" height="37" viewBox="0 0 37 37" fill="none" xmlns="http://www.w3.org/2000/svg">
<path d="M33.4999 18.6188C33.4828 22.3019 32.1111 25.85 29.6465 28.5871C27.1817 31.324 23.7962 33.0584 20.1348 33.4598V22.6981H23.6586C23.8142 22.6993 23.9646 22.6435 24.0818 22.541C24.1988 22.4386 24.2741 22.2968 24.2936 22.1425L24.6744 18.841C24.6884 18.7541 24.6831 18.6655 24.6591 18.5809C24.6352 18.4963 24.5928 18.418 24.5354 18.3515C24.4779 18.2849 24.4067 18.2318 24.3265 18.1957C24.2464 18.1597 24.1592 18.1415 24.0713 18.1426H20.1348V15.4442C20.1348 14.1903 20.4841 13.3331 22.2778 13.3331H23.9444C24.11 13.329 24.2675 13.2603 24.3832 13.1417C24.4988 13.023 24.5634 12.8639 24.5634 12.6982V9.857C24.5592 9.69138 24.4906 9.53393 24.3719 9.41828C24.2533 9.30261 24.0941 9.23792 23.9285 9.23796H21.2302C20.4722 9.18357 19.7114 9.29528 19.001 9.56526C18.2907 9.83526 17.6479 10.257 17.1173 10.8011C16.5869 11.3453 16.1814 11.9986 15.9296 12.7155C15.6776 13.4325 15.5852 14.1958 15.6587 14.9522V18.1267H13.008C12.9254 18.1267 12.8435 18.1432 12.7674 18.1753C12.6912 18.2074 12.6223 18.2545 12.5646 18.3136C12.5069 18.3728 12.4616 18.4429 12.4315 18.5198C12.4013 18.5968 12.3869 18.679 12.389 18.7616V22.0631C12.389 22.2274 12.4542 22.3849 12.5703 22.501C12.6864 22.6169 12.8438 22.6822 13.008 22.6822H15.6587V33.2377C12.2551 32.5811 9.18382 30.766 6.96722 28.1008C4.75061 25.4357 3.52552 22.0852 3.50021 18.6188C3.48973 16.6382 3.87154 14.6753 4.62364 12.8432C5.37574 11.0111 6.48322 9.34598 7.88216 7.94408C9.28112 6.54216 10.9439 5.43117 12.7744 4.67522C14.605 3.91926 16.5671 3.53331 18.5476 3.53963C20.5201 3.54587 22.472 3.94107 24.2915 4.70265C26.1112 5.46422 27.7625 6.57719 29.1514 7.97783C30.5402 9.37848 31.6393 11.0393 32.3854 12.8652C33.1316 14.6912 33.5102 16.6463 33.4999 18.6188Z" fill="black"/>
</svg>
