<svg width="72" height="71" viewBox="0 0 72 71" fill="none" xmlns="http://www.w3.org/2000/svg">
<path d="M65.5824 35.7348C65.5487 42.9987 62.8436 49.9963 57.9827 55.3944C53.1216 60.7922 46.4446 64.2129 39.2236 65.0046V43.78H46.1734C46.4801 43.7824 46.7769 43.6723 47.0079 43.4703C47.2386 43.2682 47.3872 42.9886 47.4256 42.6842L48.1767 36.1729C48.2043 36.0016 48.1939 35.8268 48.1466 35.66C48.0992 35.4931 48.0158 35.3387 47.9025 35.2076C47.7892 35.0763 47.6487 34.9716 47.4904 34.9003C47.3324 34.8293 47.1605 34.7935 46.9872 34.7955H39.2236V29.4738C39.2236 27.0007 39.9123 25.3103 43.4499 25.3103H46.7369C47.0635 25.3021 47.3741 25.1666 47.6022 24.9326C47.8303 24.6987 47.9578 24.3848 47.9578 24.0581V18.4545C47.9495 18.1279 47.814 17.8174 47.58 17.5893C47.346 17.3612 47.0322 17.2336 46.7056 17.2337H41.3838C39.889 17.1264 38.3885 17.3467 36.9874 17.8792C35.5867 18.4117 34.3187 19.2435 33.2724 20.3166C32.2263 21.3897 31.4267 22.6782 30.9299 24.0922C30.4329 25.5062 30.2507 27.0116 30.3957 28.5033V34.7642H25.1679C25.0049 34.7642 24.8436 34.7967 24.6934 34.86C24.5432 34.9233 24.4072 35.0162 24.2934 35.1328C24.1796 35.2496 24.0903 35.3878 24.0308 35.5396C23.9714 35.6913 23.9429 35.8534 23.947 36.0164V42.5277C23.947 42.8517 24.0757 43.1623 24.3046 43.3913C24.5336 43.6199 24.8441 43.7486 25.1679 43.7486H30.3957V64.5664C23.6829 63.2716 17.6258 59.6917 13.2541 54.4353C8.8825 49.1792 6.46634 42.5712 6.41643 35.7348C6.39575 31.8286 7.14877 27.9574 8.63207 24.344C10.1154 20.7306 12.2996 17.4467 15.0586 14.6818C17.8177 11.9169 21.0969 9.72582 24.7072 8.2349C28.3175 6.74399 32.1872 5.98281 36.0931 5.99527C39.9833 6.00757 43.833 6.78701 47.4215 8.28901C51.0102 9.79099 54.2671 11.986 57.0062 14.7484C59.7453 17.5108 61.9129 20.7863 63.3843 24.3874C64.8561 27.9886 65.6028 31.8446 65.5824 35.7348Z" fill="black"/>
</svg>
