<svg width="72" height="71" viewBox="0 0 72 71" fill="none" xmlns="http://www.w3.org/2000/svg">
<path d="M65.5831 35.7348C65.5494 42.9987 62.8443 49.9963 57.9835 55.3944C53.1223 60.7922 46.4454 64.2129 39.2244 65.0046V43.78H46.1741C46.4809 43.7824 46.7776 43.6723 47.0086 43.4703C47.2394 43.2682 47.3879 42.9886 47.4263 42.6842L48.1775 36.1729C48.205 36.0016 48.1946 35.8268 48.1473 35.66C48.1 35.4931 48.0165 35.3387 47.9032 35.2076C47.7899 35.0763 47.6494 34.9716 47.4911 34.9003C47.3332 34.8293 47.1613 34.7935 46.9879 34.7955H39.2244V29.4738C39.2244 27.0007 39.9131 25.3103 43.4506 25.3103H46.7376C47.0642 25.3021 47.3749 25.1666 47.603 24.9326C47.831 24.6987 47.9585 24.3848 47.9585 24.0581V18.4545C47.9503 18.1279 47.8148 17.8174 47.5808 17.5893C47.3468 17.3612 47.0329 17.2336 46.7063 17.2337H41.3845C39.8897 17.1264 38.3892 17.3467 36.9882 17.8792C35.5874 18.4117 34.3195 19.2435 33.2731 20.3166C32.227 21.3897 31.4274 22.6782 30.9307 24.0922C30.4337 25.5062 30.2514 27.0116 30.3964 28.5033V34.7642H25.1686C25.0057 34.7642 24.8443 34.7967 24.6941 34.86C24.5439 34.9233 24.4079 35.0162 24.2941 35.1328C24.1803 35.2496 24.091 35.3878 24.0316 35.5396C23.9721 35.6913 23.9436 35.8534 23.9478 36.0164V42.5277C23.9478 42.8517 24.0764 43.1623 24.3054 43.3913C24.5343 43.6199 24.8449 43.7486 25.1686 43.7486H30.3964V64.5664C23.6837 63.2716 17.6265 59.6917 13.2549 54.4353C8.88323 49.1792 6.46707 42.5712 6.41716 35.7348C6.39648 31.8286 7.1495 27.9574 8.63281 24.344C10.1161 20.7306 12.3003 17.4467 15.0593 14.6818C17.8184 11.9169 21.0977 9.72582 24.7079 8.2349C28.3182 6.74399 32.188 5.98281 36.0939 5.99527C39.9841 6.00757 43.8337 6.78701 47.4222 8.28901C51.011 9.79099 54.2678 11.986 57.0069 14.7484C59.746 17.5108 61.9136 20.7863 63.3851 24.3874C64.8568 27.9886 65.6035 31.8446 65.5831 35.7348Z" fill="white"/>
</svg>
