<svg width="37" height="37" viewBox="0 0 37 37" fill="none" xmlns="http://www.w3.org/2000/svg">
<path d="M33.4983 18.5651C33.5198 21.1992 32.8341 23.7906 31.5134 26.0679C30.1925 28.3454 28.2851 30.225 25.9907 31.5101C23.733 32.8209 21.173 33.5181 18.5637 33.5327C15.9432 33.5159 13.3725 32.8125 11.1068 31.4927C8.84108 30.1728 6.95904 28.2822 5.64735 26.0085C4.29209 23.7593 3.55149 21.192 3.5 18.5651C3.501 15.9279 4.19723 13.3378 5.51819 11.057C6.82988 8.78319 8.71191 6.89261 10.9776 5.57274C13.2434 4.25288 15.8139 3.54962 18.4346 3.53271C22.0446 3.54642 25.5291 4.86174 28.251 7.23822C28.3493 7.33053 28.4277 7.44207 28.4811 7.56591C28.5347 7.68977 28.5623 7.82331 28.5623 7.95828C28.5623 8.09325 28.5347 8.2268 28.4811 8.35065C28.4277 8.47449 28.3493 8.58603 28.251 8.67834L25.4741 11.4615C25.2938 11.6219 25.0611 11.7105 24.8202 11.7105C24.5792 11.7105 24.3465 11.6219 24.1662 11.4615C22.592 10.1399 20.6168 9.3926 18.5637 9.34178C16.9616 9.33851 15.387 9.76049 14.0003 10.5648C12.6135 11.3691 11.464 12.5271 10.6686 13.9211C9.82776 15.3247 9.37628 16.928 9.36084 18.5651C9.36866 20.169 9.79742 21.7428 10.6041 23.1282C11.4131 24.5196 12.5763 25.6709 13.9749 26.4641C15.3734 27.2573 16.9569 27.6641 18.5637 27.6428C20.1629 27.6407 21.7332 27.2165 23.1168 26.4129C24.8915 25.3502 26.2653 23.7287 27.024 21.8013H20.1783C20.0498 21.8013 19.9224 21.7757 19.8038 21.7259C19.6853 21.6761 19.5777 21.6032 19.4876 21.5112C19.3974 21.4194 19.3263 21.3105 19.2786 21.1908C19.2309 21.0711 19.2074 20.9432 19.2096 20.8143V16.947C19.2074 16.8189 19.2309 16.6916 19.2789 16.5728C19.3268 16.4541 19.398 16.3461 19.4885 16.2555C19.5789 16.1649 19.6865 16.0935 19.805 16.0455C19.9236 15.9975 20.0505 15.9738 20.1783 15.9761H32.4005C32.6318 15.9729 32.8565 16.0526 33.0342 16.2011C33.2118 16.3494 33.3308 16.5566 33.3692 16.7852C33.4658 17.3733 33.5091 17.9691 33.4983 18.5651Z" fill="black"/>
</svg>
