<svg width="40" height="40" viewBox="0 0 40 40" fill="none" xmlns="http://www.w3.org/2000/svg">
<circle cx="20" cy="20" r="20" fill="#D9D9D9"/>
<path d="M13.3407 14.6123V23H12.3651V15.4451H9.20041C9.18851 19.4903 9.02195 23 6.39262 23V22.1672C8.26051 22.1672 8.22482 18.5623 8.22482 14.6123H13.3407ZM14.6706 20.0375C14.6706 18.3243 15.908 16.968 17.7997 16.968C19.6794 16.968 20.9168 18.3243 20.9168 20.0375C20.9168 21.7746 19.6794 23.119 17.7997 23.119C15.908 23.119 14.6706 21.7746 14.6706 20.0375ZM15.6462 20.0375C15.6462 21.2749 16.3958 22.2862 17.7997 22.2862C19.1798 22.2862 19.9293 21.2749 19.9293 20.0375C19.9293 18.8121 19.1798 17.8127 17.7997 17.8127C16.3958 17.8127 15.6462 18.8121 15.6462 20.0375ZM23.2387 23H22.2631V17.087H26.3916V17.9317H23.2387V23ZM26.8818 20.0375C26.8818 18.3243 28.1191 16.968 30.0108 16.968C31.8906 16.968 33.1279 18.3243 33.1279 20.0375C33.1279 21.7746 31.8906 23.119 30.0108 23.119C28.1191 23.119 26.8818 21.7746 26.8818 20.0375ZM27.8574 20.0375C27.8574 21.2749 28.6069 22.2862 30.0108 22.2862C31.3909 22.2862 32.1404 21.2749 32.1404 20.0375C32.1404 18.8121 31.3909 17.8127 30.0108 17.8127C28.6069 17.8127 27.8574 18.8121 27.8574 20.0375Z" fill="black"/>
</svg>
