<svg width="72" height="71" viewBox="0 0 72 71" fill="none" xmlns="http://www.w3.org/2000/svg">
<path d="M40.7605 36.2186C40.7424 37.1552 40.4466 38.0655 39.9109 38.8341C39.3748 39.6023 38.6228 40.1943 37.7498 40.5348C36.8771 40.8753 35.9227 40.949 35.008 40.7463C34.0933 40.544 33.2593 40.0745 32.6118 39.3973C31.9642 38.7205 31.5323 37.8664 31.3704 36.9437C31.2089 36.0207 31.3249 35.0708 31.7038 34.214C32.0828 33.357 32.7076 32.6319 33.499 32.1308C34.2903 31.6293 35.2127 31.3743 36.1493 31.398C37.3939 31.4444 38.571 31.974 39.4319 32.8739C40.2928 33.7738 40.7694 34.9734 40.7605 36.2186Z" fill="white"/>
<path d="M44.1736 21.3975H28.1243C26.536 21.3975 25.0128 22.0284 23.8897 23.1515C22.7667 24.2745 22.1357 25.7977 22.1357 27.386V43.7944C22.1357 45.3828 22.7667 46.906 23.8897 48.029C25.0128 49.1523 26.536 49.783 28.1243 49.783H44.1736C45.7619 49.783 47.2849 49.1523 48.4081 48.029C49.5311 46.906 50.1621 45.3828 50.1621 43.7944V27.4159C50.166 26.627 50.0139 25.8451 49.7148 25.115C49.4157 24.385 48.9752 23.7213 48.4188 23.162C47.8623 22.6028 47.2005 22.159 46.4722 21.8561C45.7436 21.5533 44.9626 21.3974 44.1736 21.3975ZM36.1488 44.2438C34.5605 44.2793 32.9976 43.8409 31.6595 42.9845C30.3212 42.128 29.2687 40.8923 28.6359 39.435C28.0032 37.9778 27.819 36.3649 28.1069 34.8023C28.3948 33.24 29.1417 31.7987 30.2523 30.6624C31.3628 29.5264 32.7867 28.747 34.3422 28.4236C35.8979 28.1003 37.5144 28.2478 38.9858 28.8473C40.457 29.4467 41.7164 30.471 42.603 31.7892C43.4896 33.1078 43.9635 34.6603 43.9638 36.2489C43.9757 37.287 43.7831 38.3174 43.3967 39.2809C43.0104 40.2444 42.4379 41.1228 41.7122 41.865C40.9866 42.6076 40.1218 43.1995 39.1672 43.6078C38.2125 44.0157 37.1869 44.232 36.1488 44.2438ZM44.8324 28.2543C44.6372 28.2544 44.4437 28.2154 44.2638 28.1399C44.0839 28.0642 43.9206 27.9535 43.784 27.8141C43.6473 27.6746 43.5399 27.5093 43.468 27.3279C43.3961 27.1464 43.3612 26.9524 43.3651 26.7572C43.3651 26.3601 43.5227 25.9793 43.8035 25.6986C44.0842 25.4178 44.4653 25.2601 44.8623 25.2601C45.2593 25.2601 45.64 25.4178 45.9208 25.6986C46.2015 25.9793 46.3592 26.3601 46.3592 26.7572C46.3651 26.9684 46.3255 27.1785 46.2426 27.373C46.1598 27.5674 46.0361 27.7417 45.8797 27.8839C45.7232 28.0261 45.538 28.1328 45.3365 28.1967C45.135 28.2606 44.9223 28.2803 44.7126 28.2543H44.8324Z" fill="white"/>
<path d="M36.1495 5.91639C30.2973 5.88681 24.5679 7.59365 19.6859 10.821C14.8039 14.0483 10.9889 18.6511 8.72336 24.0471C6.45784 29.4431 5.84366 35.3897 6.95851 41.1347C8.07335 46.8801 10.8671 52.1655 14.9864 56.3222C19.1057 60.4793 24.3654 63.3211 30.1 64.4884C35.8347 65.6555 41.7869 65.0955 47.2033 62.8794C52.6197 60.663 57.2569 56.8902 60.5288 52.0377C63.8004 47.1854 65.5595 41.4717 65.5831 35.6195C65.6151 27.7786 62.5328 20.2459 57.0137 14.6763C51.4947 9.10675 43.9902 5.95601 36.1495 5.91639ZM54.1151 43.4943C54.1231 44.8217 53.8675 46.1376 53.3631 47.3653C52.859 48.5933 52.1159 49.7086 51.1775 50.6473C50.2388 51.5859 49.1232 52.3288 47.8952 52.8332C46.6675 53.3376 45.3517 53.5929 44.0246 53.5852H28.2746C26.9473 53.5929 25.6316 53.3376 24.4037 52.8332C23.1759 52.3288 22.0603 51.5859 21.1217 50.6473C20.1831 49.7086 19.4402 48.5933 18.9359 47.3653C18.4316 46.1376 18.176 44.8217 18.184 43.4943V27.7446C18.176 26.4172 18.4316 25.1015 18.9359 23.8737C19.4402 22.6458 20.1831 21.5303 21.1217 20.5917C22.0603 19.6531 23.1759 18.9101 24.4037 18.4058C25.6316 17.9015 26.9473 17.6459 28.2746 17.6539H44.0246C45.3517 17.6459 46.6675 17.9015 47.8952 18.4058C49.1232 18.9101 50.2388 19.6531 51.1775 20.5917C52.1159 21.5303 52.859 22.6458 53.3631 23.8737C53.8675 25.1015 54.1231 26.4172 54.1151 27.7446V43.4943Z" fill="white"/>
</svg>
