<svg width="72" height="71" viewBox="0 0 72 71" fill="none" xmlns="http://www.w3.org/2000/svg">
<path d="M40.7598 36.2196C40.7417 37.1562 40.4459 38.0665 39.9101 38.835C39.3741 39.6033 38.6221 40.1953 37.7491 40.5358C36.8763 40.8763 35.922 40.95 35.0073 40.7473C34.0926 40.545 33.2586 40.0755 32.611 39.3983C31.9634 38.7214 31.5315 37.8674 31.3697 36.9447C31.2082 36.0217 31.3241 35.0717 31.7031 34.215C32.0821 33.358 32.7069 32.6329 33.4982 32.1317C34.2896 31.6303 35.212 31.3753 36.1486 31.399C37.3932 31.4454 38.5703 31.975 39.4312 32.8749C40.292 33.7748 40.7686 34.9744 40.7598 36.2196Z" fill="black"/>
<path d="M44.1746 21.3955H28.1252C26.537 21.3955 25.0138 22.0264 23.8907 23.1495C22.7676 24.2726 22.1367 25.7958 22.1367 27.384V43.7925C22.1367 45.3808 22.7676 46.9041 23.8907 48.027C25.0138 49.1503 26.537 49.781 28.1252 49.781H44.1746C45.7629 49.781 47.2858 49.1503 48.4091 48.027C49.5321 46.9041 50.1631 45.3808 50.1631 43.7925V27.414C50.167 26.625 50.0149 25.8431 49.7158 25.1131C49.4167 24.383 48.9762 23.7193 48.4198 23.1601C47.8633 22.6008 47.2015 22.157 46.4732 21.8542C45.7445 21.5514 44.9635 21.3955 44.1746 21.3955ZM36.1498 44.2419C34.5615 44.2774 32.9986 43.8389 31.6605 42.9825C30.3222 42.1261 29.2696 40.8904 28.6369 39.4331C28.0042 37.9758 27.82 36.3629 28.1079 34.8003C28.3958 33.238 29.1427 31.7967 30.2532 30.6604C31.3638 29.5244 32.7876 28.745 34.3431 28.4217C35.8989 28.0984 37.5153 28.2459 38.9868 28.8453C40.458 29.4447 41.7174 30.469 42.604 31.7873C43.4906 33.1058 43.9645 34.6583 43.9648 36.247C43.9766 37.285 43.7841 38.3154 43.3977 39.279C43.0113 40.2425 42.4389 41.1208 41.7132 41.8631C40.9875 42.6056 40.1228 43.1976 39.1682 43.6058C38.2135 44.0138 37.1879 44.23 36.1498 44.2419ZM44.8334 28.2524C44.6381 28.2524 44.4447 28.2135 44.2648 28.1379C44.0849 28.0623 43.9216 27.9515 43.7849 27.8121C43.6483 27.6727 43.5409 27.5074 43.469 27.3259C43.3971 27.1444 43.3622 26.9504 43.366 26.7552C43.366 26.3582 43.5237 25.9774 43.8045 25.6966C44.0852 25.4158 44.4662 25.2581 44.8633 25.2581C45.2603 25.2581 45.641 25.4158 45.9217 25.6966C46.2025 25.9774 46.3602 26.3582 46.3602 26.7552C46.3661 26.9665 46.3264 27.1766 46.2436 27.371C46.1608 27.5655 46.0371 27.7397 45.8806 27.8819C45.7241 28.0241 45.5389 28.1308 45.3375 28.1947C45.136 28.2587 44.9233 28.2783 44.7136 28.2524H44.8334Z" fill="black"/>
<path d="M36.1487 5.91737C30.2966 5.88779 24.5671 7.59463 19.6852 10.822C14.8032 14.0493 10.9881 18.6521 8.72263 24.0481C6.45711 29.444 5.84293 35.3906 6.95777 41.1357C8.07262 46.8811 10.8664 52.1665 14.9857 56.3232C19.105 60.4803 24.3647 63.322 30.0992 64.4894C35.834 65.6564 41.7861 65.0964 47.2026 62.8803C52.619 60.664 57.2562 56.8912 60.5281 52.0386C63.7997 47.1864 65.5587 41.4727 65.5824 35.6205C65.6143 27.7796 62.5321 20.2469 57.013 14.6773C51.4939 9.10773 43.9895 5.95698 36.1487 5.91737ZM54.1144 43.4953C54.1224 44.8227 53.8668 46.1385 53.3624 47.3663C52.8583 48.5943 52.1152 49.7096 51.1768 50.6482C50.2381 51.5869 49.1225 52.3297 47.8945 52.8341C46.6668 53.3385 45.3509 53.5938 44.0238 53.5862H28.2739C26.9466 53.5938 25.6308 53.3385 24.403 52.8341C23.1751 52.3297 22.0596 51.5869 21.121 50.6482C20.1824 49.7096 19.4395 48.5943 18.9351 47.3663C18.4309 46.1385 18.1753 44.8227 18.1832 43.4953V27.7456C18.1753 26.4182 18.4309 25.1025 18.9351 23.8746C19.4395 22.6468 20.1824 21.5312 21.121 20.5926C22.0596 19.654 23.1751 18.9111 24.403 18.4068C25.6308 17.9025 26.9466 17.6469 28.2739 17.6549H44.0238C45.3509 17.6469 46.6668 17.9025 47.8945 18.4068C49.1225 18.9111 50.2381 19.654 51.1768 20.5926C52.1152 21.5312 52.8583 22.6468 53.3624 23.8746C53.8668 25.1025 54.1224 26.4182 54.1144 27.7456V43.4953Z" fill="black"/>
</svg>
