<svg width="36" height="36" viewBox="0 0 36 36" fill="none" xmlns="http://www.w3.org/2000/svg">
<path d="M17.9435 26.9791H28.1573C28.5551 27.0013 28.9521 26.9214 29.3102 26.7466C29.6682 26.5719 29.9756 26.3083 30.2028 25.981C30.4302 25.6539 30.57 25.2739 30.609 24.8775C30.648 24.4809 30.5847 24.0811 30.4253 23.7159C29.8868 22.0843 27.7331 20.1264 27.7331 18.201C27.7331 13.9262 27.7331 12.8004 25.6283 10.2877C24.9459 9.47898 24.1008 8.82297 23.1482 8.36239L21.9734 7.79133C21.7758 7.6735 21.6051 7.51518 21.473 7.32676C21.341 7.13838 21.2501 6.92413 21.2066 6.69813C21.0894 5.93671 20.6871 5.24835 20.081 4.77267C19.475 4.29697 18.7109 4.06954 17.9435 4.13649C17.1893 4.09092 16.4454 4.32817 15.857 4.8019C15.2687 5.27565 14.878 5.95176 14.7617 6.69813C14.709 6.93138 14.6057 7.15023 14.4591 7.33914C14.3124 7.52803 14.1261 7.68241 13.9132 7.79133L12.7385 8.36239C11.7858 8.82297 10.9408 9.47898 10.2584 10.2877C8.15358 12.8004 8.15358 13.9262 8.15358 18.201C8.15358 20.1264 6.09774 21.8884 5.55932 23.6181C5.23298 24.6622 5.0535 26.9791 7.77831 26.9791H17.9435Z" stroke="white" stroke-width="2.25" stroke-linecap="round" stroke-linejoin="round"/>
<path d="M22.8381 26.979C22.8513 27.6255 22.734 28.2681 22.4927 28.8678C22.2515 29.4678 21.8915 30.0128 21.4343 30.47C20.9769 30.9272 20.432 31.2872 19.8321 31.5285C19.2321 31.7699 18.5898 31.8873 17.9433 31.8738C17.2968 31.8873 16.6544 31.7699 16.0544 31.5285C15.4545 31.2872 14.9095 30.9272 14.4524 30.47C13.9952 30.0128 13.6351 29.4678 13.3938 28.8678C13.1526 28.2681 13.0351 27.6255 13.0484 26.979" stroke="white" stroke-width="2.25" stroke-linecap="round" stroke-linejoin="round"/>
</svg>
