<svg width="24" height="24" viewBox="0 0 24 24" fill="none" xmlns="http://www.w3.org/2000/svg">
<path d="M11.9618 17.9861H18.7711C19.0363 18.0009 19.3009 17.9476 19.5396 17.8311C19.7783 17.7146 19.9833 17.5389 20.1347 17.3207C20.2864 17.1026 20.3796 16.8493 20.4056 16.585C20.4315 16.3206 20.3893 16.0541 20.283 15.8106C19.924 14.7229 18.4882 13.4176 18.4882 12.134C18.4882 9.28415 18.4882 8.53361 17.0851 6.85847C16.6301 6.31932 16.0668 5.88198 15.4317 5.57493L14.6485 5.19422C14.5167 5.11567 14.403 5.01012 14.3149 4.88451C14.2268 4.75892 14.1662 4.61609 14.1372 4.46542C14.0591 3.95781 13.7909 3.4989 13.3869 3.18178C12.9829 2.86465 12.4734 2.71303 11.9618 2.75766C11.4591 2.72728 10.9631 2.88545 10.5708 3.20127C10.1787 3.5171 9.91818 3.96784 9.84065 4.46542C9.80551 4.62092 9.73662 4.76682 9.6389 4.89276C9.54115 5.01869 9.41691 5.12161 9.27499 5.19422L8.49181 5.57493C7.85671 5.88198 7.29337 6.31932 6.83844 6.85847C5.43524 8.53361 5.43524 9.28415 5.43524 12.134C5.43524 13.4176 4.06468 14.5923 3.70572 15.7454C3.48817 16.4415 3.36852 17.9861 5.18506 17.9861H11.9618Z" stroke="#9B2821" stroke-width="1.5" stroke-linecap="round" stroke-linejoin="round"/>
<path d="M15.2264 17.9844C15.2353 18.4154 15.157 18.8438 14.9961 19.2436C14.8353 19.6436 14.5953 20.0069 14.2905 20.3117C13.9856 20.6165 13.6223 20.8565 13.2224 21.0174C12.8224 21.1783 12.3942 21.2566 11.9632 21.2476C11.5322 21.2566 11.1039 21.1783 10.7039 21.0174C10.3041 20.8565 9.94067 20.6165 9.63589 20.3117C9.33108 20.0069 9.09104 19.6436 8.93019 19.2436C8.76934 18.8438 8.69102 18.4154 8.6999 17.9844" stroke="#9B2821" stroke-width="1.5" stroke-linecap="round" stroke-linejoin="round"/>
<path d="M13.7498 9.49609L10.25 12.9884" stroke="#9B2821" stroke-width="1.5" stroke-miterlimit="10" stroke-linecap="round"/>
<path d="M10.25 9.50391L13.7498 12.9963" stroke="#9B2821" stroke-width="1.5" stroke-miterlimit="10" stroke-linecap="round"/>
</svg>
