<svg width="24" height="24" viewBox="0 0 24 24" fill="none" xmlns="http://www.w3.org/2000/svg">
<path d="M11.9627 17.9861H18.772C19.0372 18.0009 19.3018 17.9476 19.5405 17.8311C19.7792 17.7146 19.9842 17.5389 20.1356 17.3207C20.2873 17.1026 20.3805 16.8493 20.4065 16.585C20.4324 16.3206 20.3902 16.0541 20.2839 15.8106C19.9249 14.7229 18.4891 13.4176 18.4891 12.134C18.4891 9.28415 18.4891 8.53361 17.086 6.85847C16.631 6.31932 16.0677 5.88198 15.4326 5.57493L14.6494 5.19422C14.5176 5.11567 14.4039 5.01012 14.3158 4.88451C14.2277 4.75892 14.1671 4.61609 14.1381 4.46542C14.06 3.95781 13.7918 3.4989 13.3878 3.18178C12.9838 2.86465 12.4743 2.71303 11.9627 2.75766C11.46 2.72728 10.964 2.88545 10.5717 3.20127C10.1796 3.5171 9.91915 3.96784 9.84162 4.46542C9.80648 4.62092 9.73759 4.76682 9.63987 4.89276C9.54212 5.01869 9.41788 5.12161 9.27596 5.19422L8.49278 5.57493C7.85768 5.88198 7.29434 6.31932 6.83941 6.85847C5.43621 8.53361 5.43621 9.28415 5.43621 12.134C5.43621 13.4176 4.06565 14.5923 3.70669 15.7454C3.48914 16.4415 3.36949 17.9861 5.18603 17.9861H11.9627Z" stroke="black" stroke-width="1.5" stroke-linecap="round" stroke-linejoin="round"/>
<path d="M15.2254 17.9844C15.2343 18.4154 15.156 18.8438 14.9951 19.2436C14.8343 19.6436 14.5943 20.0069 14.2895 20.3117C13.9846 20.6165 13.6213 20.8565 13.2214 21.0174C12.8214 21.1783 12.3932 21.2566 11.9622 21.2476C11.5312 21.2566 11.1029 21.1783 10.7029 21.0174C10.3031 20.8565 9.93969 20.6165 9.63491 20.3117C9.3301 20.0069 9.09006 19.6436 8.92921 19.2436C8.76836 18.8438 8.69004 18.4154 8.69892 17.9844" stroke="black" stroke-width="1.5" stroke-linecap="round" stroke-linejoin="round"/>
<path d="M13.7498 9.49609L10.25 12.9884" stroke="black" stroke-width="1.5" stroke-miterlimit="10" stroke-linecap="round"/>
<path d="M10.25 9.50391L13.7498 12.9963" stroke="black" stroke-width="1.5" stroke-miterlimit="10" stroke-linecap="round"/>
</svg>
