<svg width="34" height="34" viewBox="0 0 34 34" fill="none" xmlns="http://www.w3.org/2000/svg">
<circle cx="17" cy="17" r="16.5" transform="matrix(1 0 0 -1 0 34)" stroke="#9B2821"/>
<path d="M7.78906 17.5C7.51292 17.5 7.28906 17.2761 7.28906 17C7.28906 16.7239 7.51292 16.5 7.78906 16.5V17.5ZM26.5593 16.6464C26.7545 16.8417 26.7545 17.1583 26.5593 17.3536L23.3773 20.5355C23.182 20.7308 22.8655 20.7308 22.6702 20.5355C22.4749 20.3403 22.4749 20.0237 22.6702 19.8284L25.4986 17L22.6702 14.1716C22.4749 13.9763 22.4749 13.6597 22.6702 13.4645C22.8655 13.2692 23.182 13.2692 23.3773 13.4645L26.5593 16.6464ZM7.78906 16.5L26.2057 16.5V17.5L7.78906 17.5V16.5Z" fill="#9B2821"/>
</svg>
