<svg width="34" height="34" viewBox="0 0 34 34" fill="none" xmlns="http://www.w3.org/2000/svg">
<circle cx="17" cy="17" r="16.5" transform="rotate(180 17 17)" stroke="#9B2821"/>
<path d="M26.2109 17.5C26.4871 17.5 26.7109 17.2761 26.7109 17C26.7109 16.7239 26.4871 16.5 26.2109 16.5V17.5ZM7.44072 16.6464C7.24546 16.8417 7.24546 17.1583 7.44072 17.3536L10.6227 20.5355C10.818 20.7308 11.1345 20.7308 11.3298 20.5355C11.5251 20.3403 11.5251 20.0237 11.3298 19.8284L8.50138 17L11.3298 14.1716C11.5251 13.9763 11.5251 13.6597 11.3298 13.4645C11.1345 13.2692 10.818 13.2692 10.6227 13.4645L7.44072 16.6464ZM26.2109 16.5L7.79427 16.5V17.5L26.2109 17.5V16.5Z" fill="#9B2821"/>
</svg>
