<svg width="37" height="37" viewBox="0 0 37 37" fill="none" xmlns="http://www.w3.org/2000/svg">
<path d="M14.65 9.24951H10.6C9.85442 9.24951 9.25 9.85394 9.25 10.5995V14.6495C9.25 15.3951 9.85442 15.9996 10.6 15.9996H14.65C15.3956 15.9996 16 15.3951 16 14.6495V10.5995C16 9.85394 15.3956 9.24951 14.65 9.24951Z" stroke="white" stroke-width="2.25" stroke-linecap="round" stroke-linejoin="round"/>
<path d="M14.65 20.9712H10.6C9.85442 20.9712 9.25 21.5757 9.25 22.3212V26.3712C9.25 27.1168 9.85442 27.7212 10.6 27.7212H14.65C15.3956 27.7212 16 27.1168 16 26.3712V22.3212C16 21.5757 15.3956 20.9712 14.65 20.9712Z" stroke="white" stroke-width="2.25" stroke-linecap="round" stroke-linejoin="round"/>
<path d="M26.4 9.24951H22.35C21.6045 9.24951 21 9.85394 21 10.5995V14.6495C21 15.3951 21.6045 15.9996 22.35 15.9996H26.4C27.1456 15.9996 27.75 15.3951 27.75 14.6495V10.5995C27.75 9.85394 27.1456 9.24951 26.4 9.24951Z" stroke="white" stroke-width="2.25" stroke-linecap="round" stroke-linejoin="round"/>
<path d="M26.4 21.0005H22.35C21.6045 21.0005 21 21.605 21 22.3505V26.4005C21 27.1461 21.6045 27.7505 22.35 27.7505H26.4C27.1456 27.7505 27.75 27.1461 27.75 26.4005V22.3505C27.75 21.605 27.1456 21.0005 26.4 21.0005Z" stroke="white" stroke-width="2.25" stroke-linecap="round" stroke-linejoin="round"/>
<path d="M32.3751 13.875V9.25C32.3751 8.02337 31.8877 6.84698 31.0204 5.97964C30.1531 5.11228 28.9766 4.625 27.7499 4.625H23.125" stroke="white" stroke-width="2.25" stroke-linecap="round" stroke-linejoin="round"/>
<path d="M23.125 32.3746H27.7499C28.9766 32.3746 30.1531 31.8872 31.0204 31.0199C31.8877 30.1526 32.3751 28.9762 32.3751 27.7495V23.1245" stroke="white" stroke-width="2.25" stroke-linecap="round" stroke-linejoin="round"/>
<path d="M4.625 23.1245V27.7495C4.625 28.9762 5.11228 30.1526 5.97964 31.0199C6.84698 31.8872 8.02337 32.3746 9.25 32.3746H13.875" stroke="white" stroke-width="2.25" stroke-linecap="round" stroke-linejoin="round"/>
<path d="M13.875 4.625H9.25C8.02337 4.625 6.84698 5.11228 5.97964 5.97964C5.11228 6.84698 4.625 8.02337 4.625 9.25V13.875" stroke="white" stroke-width="2.25" stroke-linecap="round" stroke-linejoin="round"/>
</svg>
