<svg width="119" height="111" viewBox="0 0 119 111" fill="none" xmlns="http://www.w3.org/2000/svg">
<g opacity="0.06">
<g clip-path="url(#clip0_1776_5738)">
<path d="M56.2 12.7549H40.1125C37.1509 12.7549 34.75 15.1558 34.75 18.1174V34.2049C34.75 37.1665 37.1509 39.5676 40.1125 39.5676H56.2C59.1616 39.5676 61.5627 37.1665 61.5627 34.2049V18.1174C61.5627 15.1558 59.1616 12.7549 56.2 12.7549Z" stroke="#AF251C" stroke-width="8.9375" stroke-linecap="round" stroke-linejoin="round"/>
<path d="M56.2 59.3159H40.1125C37.1509 59.3159 34.75 61.7171 34.75 64.6784V80.7659C34.75 83.7278 37.1509 86.1284 40.1125 86.1284H56.2C59.1616 86.1284 61.5627 83.7278 61.5627 80.7659V64.6784C61.5627 61.7171 59.1616 59.3159 56.2 59.3159Z" stroke="#AF251C" stroke-width="8.9375" stroke-linecap="round" stroke-linejoin="round"/>
<path d="M102.887 12.7549H86.8C83.8387 12.7549 81.4375 15.1558 81.4375 18.1174V34.2049C81.4375 37.1665 83.8387 39.5676 86.8 39.5676H102.887C105.849 39.5676 108.25 37.1665 108.25 34.2049V18.1174C108.25 15.1558 105.849 12.7549 102.887 12.7549Z" stroke="#AF251C" stroke-width="8.9375" stroke-linecap="round" stroke-linejoin="round"/>
<path d="M102.887 59.4326H86.8C83.8387 59.4326 81.4375 61.8338 81.4375 64.7951V80.8826C81.4375 83.8445 83.8387 86.2451 86.8 86.2451H102.887C105.849 86.2451 108.25 83.8445 108.25 80.8826V64.7951C108.25 61.8338 105.849 59.4326 102.887 59.4326Z" stroke="#AF251C" stroke-width="8.9375" stroke-linecap="round" stroke-linejoin="round"/>
<path d="M126.607 31.1283V12.7568C126.607 7.88434 124.671 3.21145 121.226 -0.233835C117.78 -3.67918 113.107 -5.61475 108.235 -5.61475H89.8633" stroke="#AF251C" stroke-width="8.9375" stroke-linecap="round" stroke-linejoin="round"/>
<path d="M89.8633 104.613H108.235C113.107 104.613 117.78 102.677 121.226 99.2319C124.671 95.7868 126.607 91.1137 126.607 86.241V67.8696" stroke="#AF251C" stroke-width="8.9375" stroke-linecap="round" stroke-linejoin="round"/>
<path d="M16.3867 67.8696V86.241C16.3867 91.1137 18.3223 95.7868 21.7676 99.2319C25.2129 102.677 29.8858 104.613 34.7582 104.613H53.1298" stroke="#AF251C" stroke-width="8.9375" stroke-linecap="round" stroke-linejoin="round"/>
<path d="M53.1298 -5.61475H34.7582C29.8858 -5.61475 25.2129 -3.67918 21.7676 -0.233835C18.3223 3.21145 16.3867 7.88434 16.3867 12.7568V31.1283" stroke="#AF251C" stroke-width="8.9375" stroke-linecap="round" stroke-linejoin="round"/>
</g>
</g>
<defs>
<clipPath id="clip0_1776_5738">
<rect width="119" height="111" rx="10" fill="white"/>
</clipPath>
</defs>
</svg>
