<svg width="37" height="37" viewBox="0 0 37 37" fill="none" xmlns="http://www.w3.org/2000/svg">
<path d="M16.6742 28.7414C19.0611 28.7447 21.3953 28.0402 23.3816 26.7172C25.3678 25.394 26.9168 23.512 27.8324 21.3089C28.748 19.1059 28.9894 16.6808 28.5256 14.3407C28.0619 12.0005 26.9139 9.85046 25.2273 8.16247C23.5406 6.47449 21.3908 5.32445 19.0499 4.85788C16.7092 4.3913 14.2823 4.62916 12.0768 5.54135C9.87122 6.45353 7.98593 7.99906 6.65948 9.98237C5.33303 11.9657 4.625 14.2977 4.625 16.6832C4.625 19.8785 5.89394 22.9432 8.15313 25.204C10.4123 27.4649 13.477 28.7372 16.6742 28.7414Z" stroke="black" stroke-width="2.25" stroke-linecap="round" stroke-linejoin="round"/>
<path d="M25.2324 25.2363L32.375 32.3748" stroke="black" stroke-width="2.25" stroke-linecap="round" stroke-linejoin="round"/>
</svg>
