<svg width="37" height="36" viewBox="0 0 37 36" fill="none" xmlns="http://www.w3.org/2000/svg">
<path d="M16.6742 28.2414C19.0611 28.2447 21.3953 27.5402 23.3816 26.2172C25.3678 24.894 26.9168 23.012 27.8324 20.8089C28.748 18.6059 28.9894 16.1808 28.5256 13.8407C28.0619 11.5005 26.9139 9.35046 25.2273 7.66247C23.5406 5.97449 21.3908 4.82445 19.0499 4.35788C16.7092 3.8913 14.2823 4.12916 12.0768 5.04135C9.87122 5.95353 7.98593 7.49906 6.65948 9.48237C5.33303 11.4657 4.625 13.7977 4.625 16.1832C4.625 19.3785 5.89394 22.4432 8.15313 24.704C10.4123 26.9649 13.477 28.2372 16.6742 28.2414Z" stroke="white" stroke-width="2.25" stroke-linecap="round" stroke-linejoin="round"/>
<path d="M25.2324 24.7363L32.375 31.8748" stroke="white" stroke-width="2.25" stroke-linecap="round" stroke-linejoin="round"/>
</svg>
