<svg width="31" height="30" viewBox="0 0 31 30" fill="none" xmlns="http://www.w3.org/2000/svg">
<path d="M8.11542 13.6043L4.11156 7.85092C3.8317 7.35338 3.71646 6.78009 3.78219 6.21307C3.84791 5.64603 4.0913 5.11433 4.47755 4.69406C4.8638 4.27377 5.3731 3.98642 5.93267 3.87314C6.49209 3.75987 7.07311 3.82644 7.59246 4.06337L25.1234 12.4321C25.5906 12.6495 25.9861 12.9958 26.2633 13.4304C26.5403 13.865 26.6875 14.3697 26.6875 14.8849C26.6875 15.4004 26.5403 15.905 26.2633 16.3395C25.9861 16.774 25.5906 17.1205 25.1234 17.3378L7.33991 25.959C6.83182 26.1783 6.26865 26.2365 5.72634 26.1257C5.18402 26.0149 4.68884 25.7404 4.30754 25.3395C3.92609 24.9384 3.67684 24.43 3.59341 23.8829C3.50997 23.3358 3.59641 22.7762 3.84101 22.2797L8.11541 16.3279C8.36556 15.9177 8.49791 15.4465 8.49791 14.9662C8.49791 14.4857 8.36556 14.0145 8.11542 13.6043Z" stroke="black" stroke-width="1.5" stroke-linecap="round" stroke-linejoin="round"/>
<path d="M16.8813 15.0654H8.47656" stroke="black" stroke-width="1.5" stroke-linecap="round" stroke-linejoin="round"/>
</svg>
