<svg width="26" height="26" viewBox="0 0 26 26" fill="none" xmlns="http://www.w3.org/2000/svg">
<path d="M6.51724 17.1262C8.47053 17.1262 10.054 15.5428 10.054 13.5895C10.054 11.6362 8.47053 10.0527 6.51724 10.0527C4.56393 10.0527 2.98047 11.6362 2.98047 13.5895C2.98047 15.5428 4.56393 17.1262 6.51724 17.1262Z" stroke="black" stroke-width="1.625" stroke-linecap="round" stroke-linejoin="round"/>
<path d="M19.4821 10.0525C21.4353 10.0525 23.0188 8.46907 23.0188 6.51577C23.0188 4.56247 21.4353 2.979 19.4821 2.979C17.5287 2.979 15.9453 4.56247 15.9453 6.51577C15.9453 8.46907 17.5287 10.0525 19.4821 10.0525Z" stroke="black" stroke-width="1.625" stroke-linecap="round" stroke-linejoin="round"/>
<path d="M19.4821 23.0208C21.4353 23.0208 23.0188 21.4373 23.0188 19.484C23.0188 17.5307 21.4353 15.9473 19.4821 15.9473C17.5287 15.9473 15.9453 17.5307 15.9453 19.484C15.9453 21.4373 17.5287 23.0208 19.4821 23.0208Z" stroke="black" stroke-width="1.625" stroke-linecap="round" stroke-linejoin="round"/>
<path d="M16.2656 18.0222L9.73438 15.0513" stroke="black" stroke-width="1.625" stroke-linecap="round" stroke-linejoin="round"/>
<path d="M16.3724 8.21387L9.62891 11.8922" stroke="black" stroke-width="1.625" stroke-linecap="round" stroke-linejoin="round"/>
</svg>
