<svg width="27" height="27" viewBox="0 0 27 27" fill="none" xmlns="http://www.w3.org/2000/svg">
<g clip-path="url(#clip0_453_2472)">
<path d="M13.5 0C20.9561 0 27 6.04395 27 13.5C27 20.9561 20.9561 27 13.5 27C6.04395 27 0 20.9561 0 13.5C0 6.04395 6.04395 0 13.5 0ZM13.5 1.88325C10.419 1.88325 7.46428 3.10715 5.28572 5.28572C3.10715 7.46428 1.88325 10.419 1.88325 13.5C1.88325 16.581 3.10715 19.5357 5.28572 21.7143C7.46428 23.8928 10.419 25.1168 13.5 25.1168C16.581 25.1168 19.5357 23.8928 21.7143 21.7143C23.8928 19.5357 25.1168 16.581 25.1168 13.5C25.1168 10.419 23.8928 7.46428 21.7143 5.28572C19.5357 3.10715 16.581 1.88325 13.5 1.88325ZM10.4544 16.2C10.5457 16.9415 10.9045 17.6242 11.4633 18.1201C12.0221 18.6159 12.7426 18.8909 13.4897 18.8934C14.2368 18.8959 14.9592 18.6257 15.5213 18.1336C16.0834 17.6414 16.4466 16.9611 16.5429 16.2203C16.5567 16.0991 16.5945 15.982 16.6539 15.8756C16.7134 15.7692 16.7934 15.6756 16.8893 15.6004C16.9852 15.5251 17.0951 15.4697 17.2126 15.4372C17.3301 15.4048 17.4528 15.396 17.5738 15.4113C17.6947 15.4267 17.8114 15.4659 17.917 15.5268C18.0226 15.5876 18.1152 15.6688 18.1892 15.7656C18.2632 15.8625 18.3172 15.9731 18.3482 16.091C18.3791 16.2089 18.3864 16.3317 18.3695 16.4524C18.2161 17.6386 17.6351 18.7279 16.7356 19.5161C15.836 20.3042 14.6797 20.7369 13.4837 20.7329C12.2877 20.7289 11.1343 20.2886 10.24 19.4945C9.34566 18.7004 8.77193 17.6072 8.6265 16.42C8.60968 16.2989 8.61717 16.1756 8.64853 16.0574C8.6799 15.9392 8.7345 15.8284 8.80916 15.7315C8.88381 15.6346 8.97702 15.5536 9.08335 15.4931C9.18967 15.4326 9.30698 15.394 9.42841 15.3794C9.54985 15.3647 9.67298 15.3745 9.79062 15.408C9.90825 15.4415 10.018 15.4981 10.1135 15.5745C10.2091 15.6509 10.2884 15.7455 10.3469 15.8529C10.4054 15.9603 10.442 16.0783 10.4544 16.2ZM7.8489 8.478C8.34837 8.478 8.82738 8.67641 9.18056 9.02959C9.53374 9.38277 9.73215 9.86178 9.73215 10.3613C9.73215 10.8607 9.53374 11.3397 9.18056 11.6929C8.82738 12.0461 8.34837 12.2445 7.8489 12.2445C7.34943 12.2445 6.87042 12.0461 6.51724 11.6929C6.16406 11.3397 5.96565 10.8607 5.96565 10.3613C5.96565 9.86178 6.16406 9.38277 6.51724 9.02959C6.87042 8.67641 7.34943 8.478 7.8489 8.478ZM19.1511 8.478C19.6506 8.478 20.1296 8.67641 20.4828 9.02959C20.8359 9.38277 21.0344 9.86178 21.0344 10.3613C21.0344 10.8607 20.8359 11.3397 20.4828 11.6929C20.1296 12.0461 19.6506 12.2445 19.1511 12.2445C18.6516 12.2445 18.1726 12.0461 17.8194 11.6929C17.4663 11.3397 17.2679 10.8607 17.2679 10.3613C17.2679 9.86178 17.4663 9.38277 17.8194 9.02959C18.1726 8.67641 18.6516 8.478 19.1511 8.478Z" fill="black"/>
</g>
<defs>
<clipPath id="clip0_453_2472">
<rect width="27" height="27" fill="white"/>
</clipPath>
</defs>
</svg>
