<svg width="123" height="109" viewBox="0 0 123 109" fill="none" xmlns="http://www.w3.org/2000/svg">
<g clip-path="url(#clip0_1776_5676)">
<g opacity="0.06">
<path d="M75.4443 17.6995L72.0795 27.7181C70.8299 31.5294 68.7022 34.9932 65.8681 37.8295C63.0346 40.666 59.574 42.7954 55.7661 44.0462L45.6288 47.4145C45.288 47.5263 44.9911 47.7435 44.7807 48.0346C44.5703 48.3251 44.457 48.6754 44.457 49.0345C44.457 49.3936 44.5703 49.7433 44.7807 50.0344C44.9911 50.3249 45.288 50.5421 45.6288 50.6545L55.7661 54.0222C59.5366 55.2772 62.9627 57.3947 65.7723 60.2075C68.5821 63.0197 70.6979 66.4484 71.9517 70.2227L75.3165 80.3692C75.4289 80.71 75.6454 81.0076 75.9359 81.2176C76.227 81.4282 76.5767 81.5418 76.9353 81.5418C77.2938 81.5418 77.6435 81.4282 77.9346 81.2176C78.2251 81.0076 78.4417 80.71 78.5541 80.3692L82.0467 70.3505C83.3004 66.5768 85.4162 63.1475 88.226 60.3353C91.0359 57.5231 94.4616 55.405 98.2323 54.15L108.369 50.7823C108.71 50.6699 109.007 50.4533 109.218 50.1622C109.428 49.8711 109.541 49.5214 109.541 49.1623C109.541 48.8032 109.428 48.4529 109.218 48.1624C109.007 47.8713 108.71 47.6541 108.369 47.5423L98.3601 44.0462C94.5521 42.7954 91.0915 40.666 88.2574 37.8295C85.4239 34.9932 83.2963 31.5294 82.0467 27.7181L78.6819 17.5716C78.557 17.2342 78.3286 16.9449 78.0293 16.7452C77.7305 16.5455 77.3761 16.4457 77.0169 16.4598C76.6572 16.474 76.3116 16.6016 76.0294 16.8243C75.7472 17.0469 75.5425 17.3533 75.4443 17.6995Z" stroke="#AF251C" stroke-width="8.875" stroke-linecap="round" stroke-linejoin="round"/>
<path d="M133.21 48.9998C133.21 17.9568 108.044 -7.2085 77.0013 -7.2085C45.9583 -7.2085 20.793 17.9568 20.793 48.9998C20.793 80.0428 45.9583 105.208 77.0013 105.208C108.044 105.208 133.21 80.0428 133.21 48.9998Z" stroke="#AF251C" stroke-width="8.875"/>
</g>
</g>
<defs>
<clipPath id="clip0_1776_5676">
<rect width="123" height="109" rx="10" fill="white"/>
</clipPath>
</defs>
</svg>
