<svg width="72" height="71" viewBox="0 0 72 71" fill="none" xmlns="http://www.w3.org/2000/svg">
<path d="M36.2281 5.92011C40.1329 5.95005 43.9929 6.75344 47.5855 8.28403C51.1784 9.81458 54.4331 12.042 57.1619 14.8378C59.8907 17.6337 62.0396 20.9426 63.4845 24.5739C64.9296 28.2051 65.6423 32.0867 65.5813 35.995C63.5765 75.0201 7.72955 74.6912 6.41475 35.5344C6.38806 31.6184 7.1427 27.7367 8.63441 24.1166C10.1261 20.4964 12.3249 17.2109 15.1017 14.4526C17.8786 11.6943 21.1776 9.51877 24.8054 8.0536C28.4331 6.58843 32.3166 5.8631 36.2281 5.92011ZM41.604 30.6975C41.604 30.6975 41.6517 30.7303 41.2901 31.1909C40.9286 31.6515 40.2056 32.3755 39.8438 32.7047L32.3166 40.0094C30.7058 41.6217 30.739 42.6089 32.6125 43.9579C35.012 45.669 37.4443 47.2485 39.9098 48.9267C42.375 50.6047 45.399 53.0725 46.648 49.453C46.9663 48.4865 47.208 47.4964 47.3713 46.4917C47.8973 43.5961 48.423 40.7005 48.8833 37.772C49.5078 33.6588 50.0995 29.5458 50.6255 25.3998C50.8885 23.3597 49.8036 22.4383 47.7656 22.9319C46.9246 23.1299 46.1001 23.3939 45.3005 23.7216L23.836 32.7704C21.7981 33.6259 19.7601 34.5472 17.755 35.5344C17.262 35.7976 16.6374 36.5216 16.6703 37.015C16.7032 37.5087 17.3934 38.0682 17.9522 38.2983C19.3328 38.8577 20.812 39.2527 22.2582 39.7133C23.3583 40.0905 24.5346 40.1884 25.6819 39.9991C26.8291 39.8094 27.9116 39.3382 28.8323 38.6276C31.5605 36.6532 34.3546 34.8105 37.1485 32.968C38.4635 32.0793 39.3838 31.5859 40.6656 30.6975C41.323 30.3685 41.4727 30.2182 41.604 30.4156V30.6975Z" fill="black"/>
</svg>
