<svg width="37" height="37" viewBox="0 0 37 37" fill="none" xmlns="http://www.w3.org/2000/svg">
<path d="M18.6159 3.50158C20.5958 3.51676 22.553 3.92412 24.3746 4.70019C26.1963 5.47624 27.8466 6.60564 29.2302 8.02324C30.6138 9.44086 31.7034 11.1186 32.436 12.9598C33.1688 14.801 33.5301 16.7692 33.4992 18.7508C32.4827 38.5382 4.16591 38.3714 3.49925 18.5173C3.48572 16.5317 3.86835 14.5635 4.62471 12.7279C5.38107 10.8924 6.49593 9.22648 7.90391 7.82791C9.31188 6.42934 10.9846 5.32626 12.8241 4.58335C14.6635 3.84045 16.6326 3.47268 18.6159 3.50158ZM21.3417 16.0648C21.3417 16.0648 21.3659 16.0814 21.1826 16.315C20.9993 16.5485 20.6327 16.9156 20.4492 17.0825L16.6326 20.7863C15.8159 21.6038 15.8327 22.1044 16.7826 22.7884C17.9993 23.656 19.2326 24.4568 20.4827 25.3078C21.7326 26.1586 23.2659 27.4099 23.8992 25.5746C24.0606 25.0846 24.1832 24.5825 24.266 24.0731C24.5327 22.6049 24.7992 21.1367 25.0326 19.6519C25.3493 17.5663 25.6493 15.4808 25.916 13.3786C26.0493 12.3442 25.4993 11.877 24.4659 12.1273C24.0395 12.2277 23.6214 12.3615 23.216 12.5277L12.3326 17.1158C11.2992 17.5496 10.2659 18.0167 9.24924 18.5173C8.99925 18.6508 8.68257 19.0178 8.69925 19.268C8.71592 19.5184 9.06591 19.802 9.34925 19.9187C10.0493 20.2024 10.7993 20.4026 11.5326 20.6362C12.0904 20.8274 12.6868 20.8771 13.2685 20.7811C13.8502 20.6849 14.399 20.446 14.8659 20.0857C16.2492 19.0846 17.666 18.1502 19.0826 17.216C19.7493 16.7654 20.216 16.5152 20.8659 16.0648C21.1992 15.898 21.2751 15.8218 21.3417 15.9218V16.0648Z" fill="black"/>
</svg>
