<svg width="72" height="71" viewBox="0 0 72 71" fill="none" xmlns="http://www.w3.org/2000/svg">
<path d="M36.2286 5.92011C40.1333 5.95005 43.9934 6.75344 47.586 8.28403C51.1789 9.81458 54.4336 12.042 57.1624 14.8378C59.8912 17.6337 62.0401 20.9426 63.485 24.5739C64.9301 28.2051 65.6428 32.0867 65.5818 35.995C63.577 75.0201 7.73004 74.6912 6.41523 35.5344C6.38855 31.6184 7.14319 27.7367 8.6349 24.1166C10.1266 20.4964 12.3254 17.2109 15.1022 14.4526C17.879 11.6943 21.1781 9.51877 24.8059 8.0536C28.4336 6.58843 32.3171 5.8631 36.2286 5.92011ZM41.6045 30.6975C41.6045 30.6975 41.6521 30.7303 41.2906 31.1909C40.9291 31.6515 40.2061 32.3755 39.8443 32.7047L32.3171 40.0094C30.7063 41.6217 30.7394 42.6089 32.613 43.9579C35.0125 45.669 37.4448 47.2485 39.9103 48.9267C42.3755 50.6047 45.3995 53.0725 46.6485 49.453C46.9668 48.4865 47.2085 47.4964 47.3718 46.4917C47.8978 43.5961 48.4235 40.7005 48.8838 37.772C49.5083 33.6588 50.1 29.5458 50.626 25.3998C50.889 23.3597 49.8041 22.4383 47.7661 22.9319C46.9251 23.1299 46.1006 23.3939 45.301 23.7216L23.8365 32.7704C21.7986 33.6259 19.7606 34.5472 17.7555 35.5344C17.2625 35.7976 16.6379 36.5216 16.6708 37.015C16.7037 37.5087 17.3939 38.0682 17.9527 38.2983C19.3333 38.8577 20.8125 39.2527 22.2587 39.7133C23.3588 40.0905 24.5351 40.1884 25.6824 39.9991C26.8296 39.8094 27.9121 39.3382 28.8328 38.6276C31.561 36.6532 34.3551 34.8105 37.149 32.968C38.464 32.0793 39.3843 31.5859 40.6661 30.6975C41.3235 30.3685 41.4732 30.2182 41.6045 30.4156V30.6975Z" fill="white"/>
</svg>
