<svg width="50" height="50" viewBox="0 0 50 50" fill="none" xmlns="http://www.w3.org/2000/svg">
<circle cx="25" cy="25" r="24.5" stroke="white"/>
<path d="M19.38 25.813H21.266C21.266 29.309 22.784 30.62 26.05 30.62C28.994 30.62 30.236 29.401 30.236 27.239C30.236 25.1 29.063 24.272 27.108 24.272H24.854V22.639H27.108C29.063 22.639 30.006 21.857 30.006 20.132C30.006 18.384 28.994 17.165 26.05 17.165C22.784 17.165 21.496 18.476 21.496 21.098H19.61C19.61 17.487 21.887 15.555 26.05 15.555C29.937 15.555 31.892 17.372 31.892 19.856C31.892 21.834 30.834 22.869 28.764 23.191V23.72C30.834 24.134 32.122 25.031 32.122 27.515C32.122 30.413 29.937 32.23 26.05 32.23C21.887 32.23 19.38 30.298 19.38 25.813Z" fill="white"/>
</svg>
