<svg width="72" height="71" viewBox="0 0 72 71" fill="none" xmlns="http://www.w3.org/2000/svg">
<path d="M35.9994 5.91699C30.1484 5.91699 24.4287 7.65203 19.5637 10.9027C14.6988 14.1533 10.907 18.7736 8.66793 24.1793C6.42883 29.5848 5.84299 35.5332 6.98446 41.2717C8.12593 47.0103 10.9435 52.2815 15.0808 56.419C19.2181 60.5562 24.4893 63.3737 30.2279 64.5151C35.9665 65.6567 41.9148 65.0709 47.3203 62.8318C52.7261 60.5926 57.3464 56.8009 60.597 51.9359C63.8476 47.071 65.5827 41.3513 65.5827 35.5003C65.5747 27.6568 62.4551 20.1368 56.9091 14.5906C51.3629 9.04439 43.8428 5.92504 35.9994 5.91699ZM53.5674 28.7341V30.6457C53.5674 30.7915 53.5381 30.9362 53.4813 31.0708C53.4245 31.2054 53.3414 31.327 53.2367 31.4291C53.1319 31.5308 53.008 31.6107 52.8719 31.6637C52.7358 31.7166 52.5906 31.7421 52.4447 31.7379C49.3219 31.5166 46.3343 30.3765 43.8579 28.461V42.4486C43.8579 43.9967 43.549 45.5291 42.95 46.9568C42.3509 48.3842 41.4734 49.6778 40.3685 50.7624C39.2529 51.8738 37.9273 52.7521 36.4685 53.3462C35.0098 53.9399 33.4478 54.2375 31.8728 54.2213C29.2191 54.2171 26.6399 53.3429 24.5301 51.7333C24.1348 51.4348 23.7598 51.1106 23.4075 50.7624C21.9679 49.311 20.9311 47.5097 20.3991 45.5359C19.8671 43.5621 19.8582 41.4839 20.3733 39.5053C20.843 37.6073 21.7939 35.8621 23.1344 34.4383C24.1337 33.2171 25.3934 32.2343 26.8213 31.5625C28.2492 30.8904 29.8093 30.546 31.3873 30.5546H33.8146V35.5914C33.8158 35.7376 33.7856 35.8825 33.7265 36.0163C33.667 36.15 33.58 36.2698 33.4712 36.3674C33.362 36.4647 33.2333 36.5381 33.094 36.5822C32.9543 36.6263 32.807 36.6402 32.6618 36.623C31.253 36.1979 29.734 36.3369 28.4256 37.0106C27.1173 37.6842 26.1218 38.8397 25.6494 40.2337C25.177 41.6273 25.2645 43.15 25.8935 44.4803C26.5225 45.8107 27.6438 46.8446 29.0207 47.3641C29.8195 47.8215 30.7116 48.0913 31.6302 48.1528C32.3387 48.1848 33.0472 48.0925 33.7238 47.8798C34.8497 47.5005 35.8292 46.7793 36.5256 45.8163C37.2217 44.8537 37.6001 43.6976 37.6075 42.5092V17.0221C37.6075 16.7405 37.7193 16.4703 37.9184 16.2712C38.1178 16.072 38.3879 15.9601 38.6695 15.9601H42.8568C43.128 15.9597 43.3893 16.0632 43.5869 16.2494C43.7845 16.4356 43.9031 16.6904 43.9185 16.9614C44.0712 18.2672 44.4856 19.5288 45.1373 20.6706C45.7891 21.8124 46.6644 22.8109 47.7114 23.6063C49.1258 24.6677 50.8055 25.3187 52.566 25.4875C52.8296 25.5092 53.076 25.6256 53.2603 25.8154C53.4443 26.0051 53.5535 26.2551 53.5674 26.5191V28.7341Z" fill="black"/>
</svg>
