<svg width="72" height="71" viewBox="0 0 72 71" fill="none" xmlns="http://www.w3.org/2000/svg">
<path d="M36.0001 5.91699C30.1491 5.91699 24.4294 7.65203 19.5645 10.9027C14.6995 14.1533 10.9078 18.7736 8.66866 24.1793C6.42956 29.5848 5.84372 35.5332 6.98519 41.2717C8.12667 47.0103 10.9442 52.2815 15.0815 56.419C19.2188 60.5562 24.4901 63.3737 30.2287 64.5151C35.9672 65.6567 41.9156 65.0709 47.321 62.8318C52.7268 60.5926 57.3471 56.8009 60.5977 51.9359C63.8483 47.071 65.5834 41.3513 65.5834 35.5003C65.5754 27.6568 62.4559 20.1368 56.9099 14.5906C51.3636 9.04439 43.8435 5.92504 36.0001 5.91699ZM53.5681 28.7341V30.6457C53.5681 30.7915 53.5389 30.9362 53.4821 31.0708C53.4253 31.2054 53.3421 31.327 53.2374 31.4291C53.1327 31.5308 53.0087 31.6107 52.8726 31.6637C52.7366 31.7166 52.5913 31.7421 52.4455 31.7379C49.3226 31.5166 46.335 30.3765 43.8586 28.461V42.4486C43.8586 43.9967 43.5497 45.5291 42.9507 46.9568C42.3516 48.3842 41.4742 49.6778 40.3692 50.7624C39.2537 51.8738 37.928 52.7521 36.4693 53.3462C35.0105 53.9399 33.4485 54.2375 31.8735 54.2213C29.2198 54.2171 26.6406 53.3429 24.5309 51.7333C24.1355 51.4348 23.7605 51.1106 23.4082 50.7624C21.9686 49.311 20.9318 47.5097 20.3998 45.5359C19.8678 43.5621 19.8589 41.4839 20.374 39.5053C20.8437 37.6073 21.7946 35.8621 23.1351 34.4383C24.1344 33.2171 25.3941 32.2343 26.822 31.5625C28.25 30.8904 29.81 30.546 31.388 30.5546H33.8154V35.5914C33.8165 35.7376 33.7864 35.8825 33.7272 36.0163C33.6677 36.15 33.5808 36.2698 33.4719 36.3674C33.3627 36.4647 33.234 36.5381 33.0947 36.5822C32.9551 36.6263 32.8077 36.6402 32.6625 36.623C31.2537 36.1979 29.7347 36.3369 28.4264 37.0106C27.118 37.6842 26.1226 38.8397 25.6501 40.2337C25.1777 41.6273 25.2652 43.15 25.8942 44.4803C26.5232 45.8107 27.6445 46.8446 29.0215 47.3641C29.8202 47.8215 30.7124 48.0913 31.6309 48.1528C32.3394 48.1848 33.048 48.0925 33.7245 47.8798C34.8505 47.5005 35.83 46.7793 36.5264 45.8163C37.2225 44.8537 37.6008 43.6976 37.6082 42.5092V17.0221C37.6082 16.7405 37.7201 16.4703 37.9192 16.2712C38.1185 16.072 38.3886 15.9601 38.6703 15.9601H42.8575C43.1288 15.9597 43.39 16.0632 43.5876 16.2494C43.7852 16.4356 43.9039 16.6904 43.9192 16.9614C44.0719 18.2672 44.4864 19.5288 45.1381 20.6706C45.7898 21.8124 46.6652 22.8109 47.7121 23.6063C49.1265 24.6677 50.8062 25.3187 52.5667 25.4875C52.8303 25.5092 53.0768 25.6256 53.2611 25.8154C53.4451 26.0051 53.5542 26.2551 53.5681 26.5191V28.7341Z" fill="white"/>
</svg>
