<svg width="37" height="37" viewBox="0 0 37 37" fill="none" xmlns="http://www.w3.org/2000/svg">
<path d="M18.5005 9.12891C19.3179 9.12891 19.9805 8.4663 19.9805 7.6489C19.9805 6.83151 19.3179 6.16891 18.5005 6.16891C17.6831 6.16891 17.0205 6.83151 17.0205 7.6489C17.0205 8.4663 17.6831 9.12891 18.5005 9.12891Z" stroke="black" stroke-width="2.3125" stroke-linecap="round" stroke-linejoin="round"/>
<path d="M18.5005 19.9805C19.3179 19.9805 19.9805 19.3179 19.9805 18.5005C19.9805 17.6831 19.3179 17.0205 18.5005 17.0205C17.6831 17.0205 17.0205 17.6831 17.0205 18.5005C17.0205 19.3179 17.6831 19.9805 18.5005 19.9805Z" stroke="black" stroke-width="2.3125" stroke-linecap="round" stroke-linejoin="round"/>
<path d="M18.5005 30.832C19.3179 30.832 19.9805 30.1694 19.9805 29.352C19.9805 28.5347 19.3179 27.872 18.5005 27.872C17.6831 27.872 17.0205 28.5347 17.0205 29.352C17.0205 30.1694 17.6831 30.832 18.5005 30.832Z" stroke="black" stroke-width="2.3125" stroke-linecap="round" stroke-linejoin="round"/>
</svg>
