<svg width="25" height="25" viewBox="0 0 25 25" fill="none" xmlns="http://www.w3.org/2000/svg">
<path d="M5.67285 18.0906C4.47203 17.785 4.58119 16.5185 4.76678 15.9072C5.12703 14.7502 6.52435 13.5711 6.52435 12.2939C6.52435 9.4555 6.52435 8.66951 7.93259 6.98836C8.38905 6.45165 8.94989 6.01338 9.581 5.70019L10.3561 5.31811C10.4924 5.24161 10.6107 5.13671 10.703 5.01052C10.7953 4.88433 10.8594 4.7398 10.8911 4.58669C10.9644 4.07494 11.2323 3.61119 11.639 3.29195C12.0457 2.97273 12.5598 2.82259 13.0744 2.87277C13.5794 2.83975 14.0785 2.99758 14.4726 3.31498C14.8669 3.63238 15.1275 4.08624 15.203 4.58669C15.2395 4.74377 15.3102 4.89083 15.4103 5.01729C15.5103 5.14376 15.6371 5.24648 15.7817 5.31811L16.5568 5.70019C16.8883 5.86534 17.2027 6.06279 17.4955 6.28968" stroke="#9B2821" stroke-width="1.5625" stroke-linecap="round" stroke-linejoin="round"/>
<path d="M18.6766 8.64062C19.3752 9.73228 19.3752 10.7367 19.3752 13.0073C19.3752 14.2845 20.8272 15.5399 21.1874 16.6861C21.2909 16.9306 21.3307 17.1974 21.3035 17.4614C21.276 17.7254 21.1821 17.9782 21.0306 18.1961C20.8791 18.4142 20.6749 18.5902 20.4369 18.7079C20.1991 18.8257 19.9352 18.8814 19.6699 18.8695H8.48047" stroke="#9B2821" stroke-width="1.5625" stroke-linecap="round" stroke-linejoin="round"/>
<path d="M16.121 18.8594C16.1299 19.2919 16.0513 19.7218 15.8898 20.1232C15.7283 20.5246 15.4875 20.8892 15.1816 21.195C14.8757 21.5009 14.5112 21.7419 14.1097 21.9033C13.7083 22.0647 13.2784 22.1433 12.8459 22.1345C12.4134 22.1433 11.9835 22.0647 11.5822 21.9033C11.1808 21.7419 10.8163 21.5009 10.5103 21.195C10.2044 20.8892 9.96353 20.5246 9.80211 20.1232C9.64068 19.7218 9.56207 19.2919 9.571 18.8594" stroke="#9B2821" stroke-width="1.5625" stroke-linecap="round" stroke-linejoin="round"/>
<path d="M3.69141 20.9491L20.3065 3.46484" stroke="#9B2821" stroke-width="1.5625" stroke-miterlimit="10" stroke-linecap="round"/>
</svg>
