<svg width="25" height="25" viewBox="0 0 25 25" fill="none" xmlns="http://www.w3.org/2000/svg">
<path d="M5.66894 18.0906C4.46812 17.785 4.57729 16.5185 4.76287 15.9072C5.12312 14.7502 6.52044 13.5711 6.52044 12.2939C6.52044 9.4555 6.52044 8.66951 7.92868 6.98836C8.38514 6.45165 8.94598 6.01338 9.5771 5.70019L10.3522 5.31811C10.4885 5.24161 10.6068 5.13671 10.6991 5.01052C10.7914 4.88433 10.8555 4.7398 10.8872 4.58669C10.9605 4.07494 11.2284 3.61119 11.6351 3.29195C12.0418 2.97273 12.5559 2.82259 13.0705 2.87277C13.5755 2.83975 14.0745 2.99758 14.4687 3.31498C14.863 3.63238 15.1236 4.08624 15.1991 4.58669C15.2356 4.74377 15.3063 4.89083 15.4064 5.01729C15.5064 5.14376 15.6332 5.24648 15.7778 5.31811L16.5529 5.70019C16.8844 5.86534 17.1988 6.06279 17.4916 6.28968" stroke="black" stroke-width="1.5625" stroke-linecap="round" stroke-linejoin="round"/>
<path d="M18.6746 8.64062C19.3733 9.73228 19.3733 10.7367 19.3733 13.0073C19.3733 14.2845 20.8253 15.5399 21.1855 16.6861C21.2889 16.9306 21.3288 17.1974 21.3015 17.4614C21.274 17.7254 21.1802 17.9782 21.0287 18.1961C20.8771 18.4142 20.673 18.5902 20.4349 18.7079C20.1971 18.8257 19.9333 18.8814 19.668 18.8695H8.47852" stroke="black" stroke-width="1.5625" stroke-linecap="round" stroke-linejoin="round"/>
<path d="M16.1201 18.8594C16.1289 19.2919 16.0503 19.7218 15.8888 20.1232C15.7274 20.5246 15.4865 20.8892 15.1806 21.195C14.8748 21.5009 14.5102 21.7419 14.1087 21.9033C13.7074 22.0647 13.2775 22.1433 12.845 22.1345C12.4125 22.1433 11.9826 22.0647 11.5812 21.9033C11.1799 21.7419 10.8153 21.5009 10.5093 21.195C10.2034 20.8892 9.96255 20.5246 9.80113 20.1232C9.63971 19.7218 9.56109 19.2919 9.57002 18.8594" stroke="black" stroke-width="1.5625" stroke-linecap="round" stroke-linejoin="round"/>
<path d="M3.68945 20.9491L20.3046 3.46484" stroke="black" stroke-width="1.5625" stroke-miterlimit="10" stroke-linecap="round"/>
</svg>
