<svg width="24" height="24" viewBox="0 0 24 24" fill="none" xmlns="http://www.w3.org/2000/svg">
<path d="M10.5673 2.97656C10.1766 3.29616 9.9168 3.74809 9.83729 4.24656C9.80456 4.40033 9.73604 4.54423 9.63729 4.66656C9.54274 4.79366 9.41936 4.89648 9.27729 4.96656L8.48729 5.34656C7.85334 5.65678 7.2913 6.09619 6.83729 6.63656C5.43729 8.30656 5.43729 9.05656 5.43729 11.9066C5.43729 13.1966 4.06729 14.3666 3.70729 15.5266C3.48729 16.2166 3.36729 17.7766 5.18729 17.7766H18.7673C19.0334 17.7895 19.2984 17.7344 19.5373 17.6166C19.7758 17.4979 19.9817 17.3228 20.1373 17.1066C20.2853 16.8888 20.378 16.6383 20.4073 16.3766C20.4304 16.1098 20.3857 15.8415 20.2773 15.5966C19.9173 14.5066 18.4873 13.2066 18.4873 11.9166C18.4873 11.0366 18.4873 10.3566 18.4873 9.78656" stroke="black" stroke-width="1.5" stroke-linecap="round" stroke-linejoin="round"/>
<path d="M15.2275 17.7734C15.2304 18.2008 15.1523 18.625 14.9975 19.0234C14.831 19.419 14.5899 19.7788 14.2875 20.0834C13.983 20.3896 13.6195 20.6309 13.219 20.7924C12.8185 20.954 12.3893 21.0326 11.9575 21.0234C11.5249 21.0261 11.0963 20.941 10.6975 20.7734C9.89732 20.4397 9.26123 19.8036 8.92749 19.0034C8.77063 18.6125 8.69247 18.1945 8.69749 17.7734" stroke="black" stroke-width="1.5" stroke-linecap="round" stroke-linejoin="round"/>
<path d="M10.1475 8.92579H14.3875C14.4247 8.92551 14.4612 8.93614 14.4924 8.95638C14.5236 8.97661 14.5481 9.00556 14.563 9.03963C14.5779 9.07369 14.5825 9.11139 14.5762 9.14803C14.5699 9.18468 14.553 9.21867 14.5275 9.24579L10.4675 13.3058C10.4421 13.3329 10.4252 13.3669 10.4188 13.4036C10.4125 13.4402 10.4171 13.4779 10.432 13.512C10.4469 13.5461 10.4715 13.575 10.5027 13.5952C10.5339 13.6155 10.5703 13.6261 10.6075 13.6258H14.8475" stroke="black" stroke-width="1.5" stroke-linecap="round" stroke-linejoin="round"/>
<path d="M14.0977 3.16406H16.7877C16.8073 3.16434 16.8264 3.17035 16.8425 3.18136C16.8587 3.19236 16.8713 3.20788 16.8788 3.22598C16.8862 3.24408 16.8882 3.26397 16.8845 3.28318C16.8807 3.30239 16.8714 3.32008 16.8577 3.33406L14.2677 5.92406C14.254 5.93804 14.2447 5.95573 14.241 5.97494C14.2372 5.99416 14.2392 6.01405 14.2467 6.03215C14.2541 6.05025 14.2667 6.06576 14.2829 6.07677C14.2991 6.08777 14.3182 6.09379 14.3377 6.09406H16.9977" stroke="black" stroke-width="1.5" stroke-linecap="round" stroke-linejoin="round"/>
</svg>
