<svg width="19" height="27" viewBox="0 0 19 27" fill="none" xmlns="http://www.w3.org/2000/svg">
<path d="M9.0625 18.125C10.5042 18.1235 11.8863 17.5501 12.9057 16.5307C13.9251 15.5113 14.4985 14.1292 14.5 12.6875V5.4375C14.5 3.99539 13.9271 2.61234 12.9074 1.59261C11.8877 0.572878 10.5046 0 9.0625 0C7.62039 0 6.23734 0.572878 5.21761 1.59261C4.19788 2.61234 3.625 3.99539 3.625 5.4375V12.6875C3.6265 14.1292 4.19986 15.5113 5.21926 16.5307C6.23867 17.5501 7.62085 18.1235 9.0625 18.125ZM5.4375 5.4375C5.4375 4.47609 5.81942 3.55406 6.49924 2.87424C7.17906 2.19442 8.10109 1.8125 9.0625 1.8125C10.0239 1.8125 10.9459 2.19442 11.6258 2.87424C12.3056 3.55406 12.6875 4.47609 12.6875 5.4375V12.6875C12.6875 13.6489 12.3056 14.5709 11.6258 15.2508C10.9459 15.9306 10.0239 16.3125 9.0625 16.3125C8.10109 16.3125 7.17906 15.9306 6.49924 15.2508C5.81942 14.5709 5.4375 13.6489 5.4375 12.6875V5.4375ZM9.96875 21.7047V25.375C9.96875 25.6154 9.87327 25.8459 9.70332 26.0158C9.53336 26.1858 9.30285 26.2812 9.0625 26.2812C8.82215 26.2812 8.59164 26.1858 8.42168 26.0158C8.25173 25.8459 8.15625 25.6154 8.15625 25.375V21.7047C5.92194 21.4773 3.8513 20.4296 2.34474 18.764C0.838193 17.0984 0.00275966 14.9333 0 12.6875C0 12.4471 0.0954798 12.2166 0.265435 12.0467C0.435389 11.8767 0.665898 11.7812 0.90625 11.7812C1.1466 11.7812 1.37711 11.8767 1.54707 12.0467C1.71702 12.2166 1.8125 12.4471 1.8125 12.6875C1.8125 14.6103 2.57634 16.4544 3.93598 17.814C5.29561 19.1737 7.13968 19.9375 9.0625 19.9375C10.9853 19.9375 12.8294 19.1737 14.189 17.814C15.5487 16.4544 16.3125 14.6103 16.3125 12.6875C16.3125 12.4471 16.408 12.2166 16.5779 12.0467C16.7479 11.8767 16.9784 11.7812 17.2188 11.7812C17.4591 11.7812 17.6896 11.8767 17.8596 12.0467C18.0295 12.2166 18.125 12.4471 18.125 12.6875C18.1222 14.9333 17.2868 17.0984 15.7803 18.764C14.2737 20.4296 12.2031 21.4773 9.96875 21.7047Z" fill="black"/>
</svg>
