<svg width="25" height="25" viewBox="0 0 25 25" fill="none" xmlns="http://www.w3.org/2000/svg">
<path d="M4.31697 17.4319L4.83009 13.8645C4.85821 13.6317 4.96615 13.4159 5.13552 13.2537L15.2025 3.18667C15.332 3.05472 15.4935 2.95842 15.6711 2.90706C15.8487 2.85569 16.0366 2.85101 16.2165 2.89346C17.145 3.14083 17.9893 3.63474 18.66 4.32288C19.354 4.99091 19.8525 5.83578 20.1016 6.76632C20.1406 6.9464 20.1342 7.13335 20.0831 7.31035C20.0318 7.48736 19.9374 7.64886 19.8084 7.78035L9.74142 17.8474C9.5676 18.0072 9.35119 18.1133 9.11833 18.1528L5.5387 18.6659C5.37188 18.6885 5.20209 18.6719 5.04273 18.6178C4.88335 18.5635 4.73876 18.473 4.62032 18.3534C4.50187 18.2338 4.41283 18.0883 4.36019 17.9284C4.30755 17.7685 4.29276 17.5985 4.31697 17.4319Z" stroke="black" stroke-width="1.5625" stroke-linecap="round" stroke-linejoin="round"/>
<path d="M13.3086 5.09229L17.9022 9.67374" stroke="black" stroke-width="1.5625" stroke-linecap="round" stroke-linejoin="round"/>
<path d="M3.94824 22.1353H21.0524" stroke="black" stroke-width="1.5625" stroke-linecap="round" stroke-linejoin="round"/>
</svg>
