<svg width="74" height="74" viewBox="0 0 74 74" fill="none" xmlns="http://www.w3.org/2000/svg">
<circle cx="36.8457" cy="36.8457" r="36.8457" fill="#C3C3C3"/>
<path d="M11.2957 42.5405L18.2917 26.2825H20.0957L27.0917 42.5405H25.3317L19.1937 28.1305L13.0557 42.5405H11.2957ZM28.2629 36.5345C28.2629 32.8825 30.9469 30.2205 34.6429 30.2205C38.1849 30.2205 40.8249 32.9265 40.8249 36.5565C40.8249 40.1645 38.2289 42.8265 34.6869 42.8265C31.0129 42.8265 28.2629 40.1425 28.2629 36.5345ZM34.6429 41.3305C37.2829 41.3305 39.1749 39.3505 39.1749 36.5785C39.1749 33.7405 37.2389 31.7165 34.5109 31.7165C31.8709 31.7165 29.9129 33.7845 29.9129 36.5565C29.9129 39.3065 31.9149 41.3305 34.6429 41.3305ZM43.1409 42.5405V30.5065H49.3009V31.9805H44.7689V42.5405H43.1409ZM50.4992 36.5345C50.4992 32.8825 53.1832 30.2205 56.8792 30.2205C60.4212 30.2205 63.0612 32.9265 63.0612 36.5565C63.0612 40.1645 60.4652 42.8265 56.9232 42.8265C53.2492 42.8265 50.4992 40.1425 50.4992 36.5345ZM56.8792 41.3305C59.5192 41.3305 61.4112 39.3505 61.4112 36.5785C61.4112 33.7405 59.4752 31.7165 56.7472 31.7165C54.1072 31.7165 52.1492 33.7845 52.1492 36.5565C52.1492 39.3065 54.1512 41.3305 56.8792 41.3305Z" fill="black"/>
</svg>
