<svg width="68" height="68" viewBox="0 0 68 68" fill="none" xmlns="http://www.w3.org/2000/svg">
<g clip-path="url(#clip0_423_762)">
<path d="M34 68C52.7777 68 68 52.7777 68 34C68 15.2223 52.7777 0 34 0C15.2223 0 0 15.2223 0 34C0 52.7777 15.2223 68 34 68Z" fill="white"/>
<path d="M33.2506 11.471L13.2437 45.3017C12.9004 45.882 13.3187 46.6147 13.9933 46.6147H29.7517C30.0588 46.6147 30.3441 46.4527 30.5013 46.1891L35.5791 37.6123C35.9225 37.032 35.5042 36.2993 34.8295 36.2993H30.9607C30.6536 36.2993 30.3707 36.4614 30.2135 36.7249L27.6528 41.0218C27.4956 41.2853 27.2127 41.4473 26.9056 41.4473H22.9425C22.2678 41.4473 21.8495 40.7147 22.1929 40.1344L28.8401 28.8977C29.1786 28.3247 30.0128 28.3295 30.3441 28.9074C30.6754 29.4853 31.5072 29.4902 31.8481 28.9171L34.728 24.0472C35.0641 23.4765 35.8886 23.4765 36.2247 24.0472L45.7397 40.1344C46.0831 40.7147 45.6648 41.4473 44.9901 41.4473H39.3029C38.6307 41.4473 38.2124 42.1776 38.5533 42.7579L40.57 46.1867C40.7271 46.4527 41.0125 46.6147 41.3195 46.6147H54.0118C54.6864 46.6147 55.1048 45.882 54.7614 45.3017L34.7497 11.471C34.4136 10.9003 33.5891 10.9003 33.253 11.471H33.2506Z" fill="#931A1D"/>
</g>
<defs>
<clipPath id="clip0_423_762">
<rect width="68" height="68" fill="white"/>
</clipPath>
</defs>
</svg>
